<?xml version="1.0" encoding="utf-8"?>
<!-- Generator: Adobe Illustrator 20.1.0, SVG Export Plug-In . SVG Version: 6.00 Build 0)  -->
<svg version="1.1" id="Layer_2" xmlns="http://www.w3.org/2000/svg" xmlns:xlink="http://www.w3.org/1999/xlink" x="0px" y="0px"
	 viewBox="0 0 560 479" enable-background="new 0 0 560 479" xml:space="preserve">
<path fill="#231F20" d="M313.7,40H85c0,0-85,2.4-85,85s0,269,0,269s0.3,85,85,85s269,0,269,0s85,1.1,85-85s0-110.7,0-110.7
	s-0.3-3.3-7-3.3s-27,0-27,0s-7-1.3-7,6.9s0,105.1,0,105.1s0.4,46-46,46s-266,0-266,0s-46-0.2-46-46s0-266,0-266s0.2-46,46-46
	s226.1,0,226.1,0s7.9-0.7,7.9-9s0-22,0-22S320.5,40,313.7,40z"/>
<path fill="#231F20" d="M216,294L421,89l-57-58c0,0-15.2-23.3,11.3-31.1L540,0c0,0,20,0.1,20,20s0,161,0,161s-0.4,20-19.6,20
	c0,0-6,1.4-11.3-4s-58-58-58-58L303.2,306.8L268,342c0,0-9.3,6.8-15.9,0S217,306,217,306S210.9,299.1,216,294z"/>
</svg>
